<?xml version="1.0" encoding="UTF-8"?>
<svg xmlns="http://www.w3.org/2000/svg" viewBox="0 0 600 800" role="img"
     aria-label="외관 비전 검사·이벤트 트리거 — 8 단계 라인스캔 → CMMS 처분 기록">
  <title>외관 비전 검사·이벤트 트리거</title>
  <desc>라인스캔/다각도 카메라 + 균일 조명, EfficientNet/ViT/YOLO 비전 모델, 결함 등급 매핑 + 라인 분기·정지 이벤트, CMMS/MES 처분 기록 + Active Learning</desc>
  <defs>
    <linearGradient id="g_pkg4_d2" x1="0%" y1="0%" x2="100%" y2="100%">
      <stop offset="0%" stop-color="#F59E0B"/><stop offset="100%" stop-color="#FB923C"/>
    </linearGradient>
    <linearGradient id="g_pkg4_d2_card" x1="0%" y1="0%" x2="0%" y2="100%">
      <stop offset="0%" stop-color="#FFFFFF"/>
      <stop offset="100%" stop-color="#FEF3C7"/>
    </linearGradient>
    <filter id="shadow" x="-20%" y="-20%" width="140%" height="140%">
      <feDropShadow dx="0" dy="4" stdDeviation="6" flood-color="#0F172A" flood-opacity="0.08"/>
      <feDropShadow dx="0" dy="2" stdDeviation="3" flood-color="#0F172A" flood-opacity="0.06"/>
    </filter>
  </defs>
  <style>
    text { font-family: "Pretendard", system-ui, -apple-system, sans-serif; }
  </style>
  <rect width="600" height="800" fill="#FFFBEB"/>
  <!-- 헤더 100px -->
  <rect x="0" y="0" width="600" height="100" fill="url(#g_pkg4_d2)"/>
  <text x="40" y="40" font-size="11" font-weight="600" fill="rgba(255,255,255,0.85)" letter-spacing="2">PKG 4 · DIAGRAM 2 · VISION QC HITL</text>
  <text x="40" y="68" font-size="20" font-weight="800" fill="white">외관 비전 검사·이벤트 트리거</text>
  <text x="40" y="88" font-size="11" font-weight="500" fill="rgba(255,255,255,0.85)">8 단계 라인스캔 → CMMS 처분 기록</text>
  <!-- 카드 stack 8 개 -->
  <g class="card" transform="translate(0, 110)">
    <rect x="48" y="0" width="472" height="65" rx="8" fill="url(#g_pkg4_d2_card)" stroke="#FBBF24" stroke-width="0.8" filter="url(#shadow)"/>
    <circle cx="56" cy="32" r="14" fill="url(#g_pkg4_d2)"/>
    <text x="56" y="36" text-anchor="middle" fill="white" font-size="11" font-weight="700">1</text>
    <text x="90" y="28" font-size="11" font-weight="700" fill="#78350F">카메라 입력</text>
    <text x="90" y="44" font-size="9" font-weight="500" fill="#92400E">라인스캔 / 다각도</text>
  </g>
  <text x="300" y="181" text-anchor="middle" font-size="10" fill="#FBBF24" opacity="0.6">▼</text>
  <g class="card" transform="translate(0, 183)">
    <rect x="48" y="0" width="472" height="65" rx="8" fill="url(#g_pkg4_d2_card)" stroke="#FBBF24" stroke-width="0.8" filter="url(#shadow)"/>
    <circle cx="56" cy="32" r="14" fill="url(#g_pkg4_d2)"/>
    <text x="56" y="36" text-anchor="middle" fill="white" font-size="11" font-weight="700">2</text>
    <text x="90" y="28" font-size="11" font-weight="700" fill="#78350F">전처리</text>
    <text x="90" y="44" font-size="9" font-weight="500" fill="#92400E">왜곡 보정·정규화</text>
  </g>
  <text x="300" y="254" text-anchor="middle" font-size="10" fill="#FBBF24" opacity="0.6">▼</text>
  <g class="card" transform="translate(0, 256)">
    <rect x="48" y="0" width="472" height="65" rx="8" fill="url(#g_pkg4_d2_card)" stroke="#FBBF24" stroke-width="0.8" filter="url(#shadow)"/>
    <circle cx="56" cy="32" r="14" fill="url(#g_pkg4_d2)"/>
    <text x="56" y="36" text-anchor="middle" fill="white" font-size="11" font-weight="700">3</text>
    <text x="90" y="28" font-size="11" font-weight="700" fill="#78350F">조명 균일도</text>
    <text x="90" y="44" font-size="9" font-weight="500" fill="#92400E">균일 조도 보정</text>
  </g>
  <text x="300" y="327" text-anchor="middle" font-size="10" fill="#FBBF24" opacity="0.6">▼</text>
  <g class="card" transform="translate(0, 329)">
    <rect x="48" y="0" width="472" height="65" rx="8" fill="url(#g_pkg4_d2_card)" stroke="#FBBF24" stroke-width="0.8" filter="url(#shadow)"/>
    <circle cx="56" cy="32" r="14" fill="url(#g_pkg4_d2)"/>
    <text x="56" y="36" text-anchor="middle" fill="white" font-size="11" font-weight="700">4</text>
    <text x="90" y="28" font-size="11" font-weight="700" fill="#78350F">비전 모델</text>
    <text x="90" y="44" font-size="9" font-weight="500" fill="#92400E">EfficientNet / ViT / YOLO</text>
  </g>
  <text x="300" y="400" text-anchor="middle" font-size="10" fill="#FBBF24" opacity="0.6">▼</text>
  <g class="card" transform="translate(0, 402)">
    <rect x="48" y="0" width="472" height="65" rx="8" fill="url(#g_pkg4_d2_card)" stroke="#FBBF24" stroke-width="0.8" filter="url(#shadow)"/>
    <circle cx="56" cy="32" r="14" fill="url(#g_pkg4_d2)"/>
    <text x="56" y="36" text-anchor="middle" fill="white" font-size="11" font-weight="700">5</text>
    <text x="90" y="28" font-size="11" font-weight="700" fill="#78350F">결함 등급 매핑</text>
    <text x="90" y="44" font-size="9" font-weight="500" fill="#92400E">설계 허용치 대비 분류</text>
  </g>
  <text x="300" y="473" text-anchor="middle" font-size="10" fill="#FBBF24" opacity="0.6">▼</text>
  <g class="card" transform="translate(0, 475)">
    <rect x="48" y="0" width="472" height="65" rx="8" fill="url(#g_pkg4_d2_card)" stroke="#FBBF24" stroke-width="0.8" filter="url(#shadow)"/>
    <circle cx="56" cy="32" r="14" fill="url(#g_pkg4_d2)"/>
    <text x="56" y="36" text-anchor="middle" fill="white" font-size="11" font-weight="700">6</text>
    <text x="90" y="28" font-size="11" font-weight="700" fill="#78350F">이벤트 트리거</text>
    <text x="90" y="44" font-size="9" font-weight="500" fill="#92400E">라인 분기 / 정지</text>
  </g>
  <text x="300" y="546" text-anchor="middle" font-size="10" fill="#FBBF24" opacity="0.6">▼</text>
  <g class="card" transform="translate(0, 548)">
    <rect x="48" y="0" width="472" height="65" rx="8" fill="url(#g_pkg4_d2_card)" stroke="#FBBF24" stroke-width="0.8" filter="url(#shadow)"/>
    <circle cx="56" cy="32" r="14" fill="url(#g_pkg4_d2)"/>
    <text x="56" y="36" text-anchor="middle" fill="white" font-size="11" font-weight="700">7</text>
    <text x="90" y="28" font-size="11" font-weight="700" fill="#78350F">CMMS/MES 연동</text>
    <text x="90" y="44" font-size="9" font-weight="500" fill="#92400E">처분 기록 자동 적재</text>
  </g>
  <text x="300" y="619" text-anchor="middle" font-size="10" fill="#FBBF24" opacity="0.6">▼</text>
  <g class="card" transform="translate(0, 621)">
    <rect x="48" y="0" width="472" height="65" rx="8" fill="url(#g_pkg4_d2_card)" stroke="#FBBF24" stroke-width="0.8" filter="url(#shadow)"/>
    <circle cx="56" cy="32" r="14" fill="url(#g_pkg4_d2)"/>
    <text x="56" y="36" text-anchor="middle" fill="white" font-size="11" font-weight="700">8</text>
    <text x="90" y="28" font-size="11" font-weight="700" fill="#78350F">검사원 라벨링</text>
    <text x="90" y="44" font-size="9" font-weight="500" fill="#92400E">Active Learning 환류</text>
  </g>
  <!-- 하단 cross-reference 120px -->
  <rect x="40" y="690" width="520" height="80" rx="8" fill="#EEF2FF" stroke="#C7D2FE" stroke-width="1"/>
  <text x="60" y="715" font-size="11" font-weight="700" fill="#4338CA">📌 사업계획서 §SCN-RUB-05 외관 비전 검사 paste 가능</text>
  <text x="60" y="735" font-size="10" font-weight="500" fill="#475569">결합 5.2 카드: 5.2-c (비전 검사)</text>
  <text x="60" y="752" font-size="10" font-weight="500" fill="#475569">Active Learning 환류 + CMMS/MES 처분 기록</text>
</svg>
