<?xml version="1.0" encoding="UTF-8"?>
<svg xmlns="http://www.w3.org/2000/svg" viewBox="0 0 600 800" role="img"
     aria-label="사양 → 추천 → HITL → 플라이휠 — 9 단계 데이터 플라이휠">
  <title>사양 → 추천 → HITL → 플라이휠</title>
  <desc>주문 사양 입력부터 LLM 근거 추천, 숙련자 HITL 승인, 신규 사례 자동 편입까지 9 단계 데이터 플라이휠 흐름</desc>
  <defs>
    <linearGradient id="g_pkg2_d1" x1="0%" y1="0%" x2="100%" y2="100%">
      <stop offset="0%" stop-color="#3730A3"/><stop offset="100%" stop-color="#4F46E5"/>
    </linearGradient>
    <linearGradient id="g_pkg2_d1_card" x1="0%" y1="0%" x2="0%" y2="100%">
      <stop offset="0%" stop-color="#FFFFFF"/>
      <stop offset="100%" stop-color="#F1F5F9"/>
    </linearGradient>
    <filter id="shadow" x="-20%" y="-20%" width="140%" height="140%">
      <feDropShadow dx="0" dy="4" stdDeviation="6" flood-color="#0F172A" flood-opacity="0.08"/>
      <feDropShadow dx="0" dy="2" stdDeviation="3" flood-color="#0F172A" flood-opacity="0.06"/>
    </filter>
  </defs>
  <style>
    text { font-family: "Pretendard", system-ui, -apple-system, sans-serif; }
  </style>
  <rect width="600" height="800" fill="#EEF2FF"/>
  <!-- 헤더 100px -->
  <rect x="0" y="0" width="600" height="100" fill="url(#g_pkg2_d1)"/>
  <text x="40" y="40" font-size="11" font-weight="600" fill="rgba(255,255,255,0.85)" letter-spacing="2">PKG 2 · DIAGRAM 1 · DATA FLYWHEEL</text>
  <text x="40" y="68" font-size="20" font-weight="800" fill="white">사양 → 추천 → HITL → 플라이휠</text>
  <text x="40" y="88" font-size="11" font-weight="500" fill="rgba(255,255,255,0.85)">9 단계 데이터 플라이휠</text>
  <!-- 카드 stack 9 개 -->
  <g class="card" transform="translate(0, 110)">
    <rect x="48" y="0" width="472" height="57" rx="8" fill="url(#g_pkg2_d1_card)" stroke="#818CF8" stroke-width="0.8" filter="url(#shadow)"/>
    <circle cx="56" cy="28" r="14" fill="url(#g_pkg2_d1)"/>
    <text x="56" y="32" text-anchor="middle" fill="white" font-size="11" font-weight="700">1</text>
    <text x="90" y="24" font-size="11" font-weight="700" fill="#1E1B4B">주문·사양 입력</text>
    <text x="90" y="40" font-size="9" font-weight="500" fill="#475569">재질·치수·형상 → 시작점</text>
  </g>
  <text x="300" y="173" text-anchor="middle" font-size="10" fill="#818CF8" opacity="0.6">▼</text>
  <g class="card" transform="translate(0, 175)">
    <rect x="48" y="0" width="472" height="57" rx="8" fill="url(#g_pkg2_d1_card)" stroke="#818CF8" stroke-width="0.8" filter="url(#shadow)"/>
    <circle cx="56" cy="28" r="14" fill="url(#g_pkg2_d1)"/>
    <text x="56" y="32" text-anchor="middle" fill="white" font-size="11" font-weight="700">2</text>
    <text x="90" y="24" font-size="11" font-weight="700" fill="#1E1B4B">피쳐 인코딩·임베딩</text>
    <text x="90" y="40" font-size="9" font-weight="500" fill="#475569">수치·범주 dense vector</text>
  </g>
  <text x="300" y="238" text-anchor="middle" font-size="10" fill="#818CF8" opacity="0.6">▼</text>
  <g class="card" transform="translate(0, 240)">
    <rect x="48" y="0" width="472" height="57" rx="8" fill="url(#g_pkg2_d1_card)" stroke="#818CF8" stroke-width="0.8" filter="url(#shadow)"/>
    <circle cx="56" cy="28" r="14" fill="url(#g_pkg2_d1)"/>
    <text x="56" y="32" text-anchor="middle" fill="white" font-size="11" font-weight="700">3</text>
    <text x="90" y="24" font-size="11" font-weight="700" fill="#1E1B4B">벡터 유사도 검색</text>
    <text x="90" y="40" font-size="9" font-weight="500" fill="#475569">Top-N 후보 추출</text>
  </g>
  <text x="300" y="303" text-anchor="middle" font-size="10" fill="#818CF8" opacity="0.6">▼</text>
  <g class="card" transform="translate(0, 305)">
    <rect x="48" y="0" width="472" height="57" rx="8" fill="url(#g_pkg2_d1_card)" stroke="#818CF8" stroke-width="0.8" filter="url(#shadow)"/>
    <circle cx="56" cy="28" r="14" fill="url(#g_pkg2_d1)"/>
    <text x="56" y="32" text-anchor="middle" fill="white" font-size="11" font-weight="700">4</text>
    <text x="90" y="24" font-size="11" font-weight="700" fill="#1E1B4B">과거 이력 KB 조회</text>
    <text x="90" y="40" font-size="9" font-weight="500" fill="#475569">사양·설정·결과 매칭</text>
  </g>
  <text x="300" y="368" text-anchor="middle" font-size="10" fill="#818CF8" opacity="0.6">▼</text>
  <g class="card" transform="translate(0, 370)">
    <rect x="48" y="0" width="472" height="57" rx="8" fill="url(#g_pkg2_d1_card)" stroke="#818CF8" stroke-width="0.8" filter="url(#shadow)"/>
    <circle cx="56" cy="28" r="14" fill="url(#g_pkg2_d1)"/>
    <text x="56" y="32" text-anchor="middle" fill="white" font-size="11" font-weight="700">5</text>
    <text x="90" y="24" font-size="11" font-weight="700" fill="#1E1B4B">규칙 검증</text>
    <text x="90" y="40" font-size="9" font-weight="500" fill="#475569">물리·설비 제약 체크</text>
  </g>
  <text x="300" y="433" text-anchor="middle" font-size="10" fill="#818CF8" opacity="0.6">▼</text>
  <g class="card" transform="translate(0, 435)">
    <rect x="48" y="0" width="472" height="57" rx="8" fill="url(#g_pkg2_d1_card)" stroke="#818CF8" stroke-width="0.8" filter="url(#shadow)"/>
    <circle cx="56" cy="28" r="14" fill="url(#g_pkg2_d1)"/>
    <text x="56" y="32" text-anchor="middle" fill="white" font-size="11" font-weight="700">6</text>
    <text x="90" y="24" font-size="11" font-weight="700" fill="#1E1B4B">LLM 요약·근거</text>
    <text x="90" y="40" font-size="9" font-weight="500" fill="#475569">Citation 포함 추천 근거</text>
  </g>
  <text x="300" y="498" text-anchor="middle" font-size="10" fill="#818CF8" opacity="0.6">▼</text>
  <g class="card" transform="translate(0, 500)">
    <rect x="48" y="0" width="472" height="57" rx="8" fill="url(#g_pkg2_d1_card)" stroke="#818CF8" stroke-width="0.8" filter="url(#shadow)"/>
    <circle cx="56" cy="28" r="14" fill="url(#g_pkg2_d1)"/>
    <text x="56" y="32" text-anchor="middle" fill="white" font-size="11" font-weight="700">7</text>
    <text x="90" y="24" font-size="11" font-weight="700" fill="#1E1B4B">추천 UI 표시</text>
    <text x="90" y="40" font-size="9" font-weight="500" fill="#475569">Top-N 레시피 카드</text>
  </g>
  <text x="300" y="563" text-anchor="middle" font-size="10" fill="#818CF8" opacity="0.6">▼</text>
  <g class="card" transform="translate(0, 565)">
    <rect x="48" y="0" width="472" height="57" rx="8" fill="url(#g_pkg2_d1_card)" stroke="#818CF8" stroke-width="0.8" filter="url(#shadow)"/>
    <circle cx="56" cy="28" r="14" fill="url(#g_pkg2_d1)"/>
    <text x="56" y="32" text-anchor="middle" fill="white" font-size="11" font-weight="700">8</text>
    <text x="90" y="24" font-size="11" font-weight="700" fill="#1E1B4B">숙련자 HITL</text>
    <text x="90" y="40" font-size="9" font-weight="500" fill="#475569">승인·미세조정</text>
  </g>
  <text x="300" y="628" text-anchor="middle" font-size="10" fill="#818CF8" opacity="0.6">▼</text>
  <g class="card" transform="translate(0, 630)">
    <rect x="48" y="0" width="472" height="57" rx="8" fill="url(#g_pkg2_d1_card)" stroke="#818CF8" stroke-width="0.8" filter="url(#shadow)"/>
    <circle cx="56" cy="28" r="14" fill="url(#g_pkg2_d1)"/>
    <text x="56" y="32" text-anchor="middle" fill="white" font-size="11" font-weight="700">9</text>
    <text x="90" y="24" font-size="11" font-weight="700" fill="#1E1B4B">신규 사례 자동 편입</text>
    <text x="90" y="40" font-size="9" font-weight="500" fill="#475569">데이터 플라이휠 환류</text>
  </g>
  <!-- 하단 cross-reference 120px -->
  <rect x="40" y="690" width="520" height="80" rx="8" fill="#EEF2FF" stroke="#C7D2FE" stroke-width="1"/>
  <text x="60" y="715" font-size="11" font-weight="700" fill="#4338CA">📌 사업계획서 §SCN-STL-04 패스 스케줄 표준화 paste 가능</text>
  <text x="60" y="735" font-size="10" font-weight="500" fill="#475569">결합 5.2 카드: 5.2-a (유사 사례) + 5.2-f (LLM·RAG)</text>
  <text x="60" y="752" font-size="10" font-weight="500" fill="#475569">Track 2 SCN-MLO-01 데이터 플라이휠 환류 루프 결합</text>
</svg>
