<?xml version="1.0" encoding="UTF-8"?>
<svg xmlns="http://www.w3.org/2000/svg" viewBox="0 0 600 800" role="img"
     aria-label="실시간 두께 조기경보 — 8 단계 ICS Tag → HMI 경보">
  <title>실시간 두께 조기경보</title>
  <desc>PLC/Historian 의 10~100Hz 태그를 Edge 스트림으로 처리, 1D-CNN/LSTM 으로 두께 이탈 예측, HMI 경보 → 드리프트 → 재학습</desc>
  <defs>
    <linearGradient id="g_pkg2_d2" x1="0%" y1="0%" x2="100%" y2="100%">
      <stop offset="0%" stop-color="#3730A3"/><stop offset="100%" stop-color="#4F46E5"/>
    </linearGradient>
    <linearGradient id="g_pkg2_d2_card" x1="0%" y1="0%" x2="0%" y2="100%">
      <stop offset="0%" stop-color="#FFFFFF"/>
      <stop offset="100%" stop-color="#F1F5F9"/>
    </linearGradient>
    <filter id="shadow" x="-20%" y="-20%" width="140%" height="140%">
      <feDropShadow dx="0" dy="4" stdDeviation="6" flood-color="#0F172A" flood-opacity="0.08"/>
      <feDropShadow dx="0" dy="2" stdDeviation="3" flood-color="#0F172A" flood-opacity="0.06"/>
    </filter>
  </defs>
  <style>
    text { font-family: "Pretendard", system-ui, -apple-system, sans-serif; }
  </style>
  <rect width="600" height="800" fill="#EEF2FF"/>
  <!-- 헤더 100px -->
  <rect x="0" y="0" width="600" height="100" fill="url(#g_pkg2_d2)"/>
  <text x="40" y="40" font-size="11" font-weight="600" fill="rgba(255,255,255,0.85)" letter-spacing="2">PKG 2 · DIAGRAM 2 · REAL-TIME EARLY WARNING</text>
  <text x="40" y="68" font-size="20" font-weight="800" fill="white">실시간 두께 조기경보</text>
  <text x="40" y="88" font-size="11" font-weight="500" fill="rgba(255,255,255,0.85)">8 단계 ICS Tag → HMI 경보</text>
  <!-- 카드 stack 8 개 -->
  <g class="card" transform="translate(0, 110)">
    <rect x="48" y="0" width="472" height="65" rx="8" fill="url(#g_pkg2_d2_card)" stroke="#818CF8" stroke-width="0.8" filter="url(#shadow)"/>
    <circle cx="56" cy="32" r="14" fill="url(#g_pkg2_d2)"/>
    <text x="56" y="36" text-anchor="middle" fill="white" font-size="11" font-weight="700">1</text>
    <text x="90" y="28" font-size="11" font-weight="700" fill="#1E1B4B">PLC/Historian</text>
    <text x="90" y="44" font-size="9" font-weight="500" fill="#475569">10~100Hz 태그 수집</text>
  </g>
  <text x="300" y="181" text-anchor="middle" font-size="10" fill="#818CF8" opacity="0.6">▼</text>
  <g class="card" transform="translate(0, 183)">
    <rect x="48" y="0" width="472" height="65" rx="8" fill="url(#g_pkg2_d2_card)" stroke="#818CF8" stroke-width="0.8" filter="url(#shadow)"/>
    <circle cx="56" cy="32" r="14" fill="url(#g_pkg2_d2)"/>
    <text x="56" y="36" text-anchor="middle" fill="white" font-size="11" font-weight="700">2</text>
    <text x="90" y="28" font-size="11" font-weight="700" fill="#1E1B4B">Edge 스트림 버퍼</text>
    <text x="90" y="44" font-size="9" font-weight="500" fill="#475569">NTP 동기화</text>
  </g>
  <text x="300" y="254" text-anchor="middle" font-size="10" fill="#818CF8" opacity="0.6">▼</text>
  <g class="card" transform="translate(0, 256)">
    <rect x="48" y="0" width="472" height="65" rx="8" fill="url(#g_pkg2_d2_card)" stroke="#818CF8" stroke-width="0.8" filter="url(#shadow)"/>
    <circle cx="56" cy="32" r="14" fill="url(#g_pkg2_d2)"/>
    <text x="56" y="36" text-anchor="middle" fill="white" font-size="11" font-weight="700">3</text>
    <text x="90" y="28" font-size="11" font-weight="700" fill="#1E1B4B">슬라이딩 윈도우 피쳐</text>
    <text x="90" y="44" font-size="9" font-weight="500" fill="#475569">통계·재질 메타 추출</text>
  </g>
  <text x="300" y="327" text-anchor="middle" font-size="10" fill="#818CF8" opacity="0.6">▼</text>
  <g class="card" transform="translate(0, 329)">
    <rect x="48" y="0" width="472" height="65" rx="8" fill="url(#g_pkg2_d2_card)" stroke="#818CF8" stroke-width="0.8" filter="url(#shadow)"/>
    <circle cx="56" cy="32" r="14" fill="url(#g_pkg2_d2)"/>
    <text x="56" y="36" text-anchor="middle" fill="white" font-size="11" font-weight="700">4</text>
    <text x="90" y="28" font-size="11" font-weight="700" fill="#1E1B4B">예측 모델</text>
    <text x="90" y="44" font-size="9" font-weight="500" fill="#475569">1D-CNN/LSTM/Transformer</text>
  </g>
  <text x="300" y="400" text-anchor="middle" font-size="10" fill="#818CF8" opacity="0.6">▼</text>
  <g class="card" transform="translate(0, 402)">
    <rect x="48" y="0" width="472" height="65" rx="8" fill="url(#g_pkg2_d2_card)" stroke="#818CF8" stroke-width="0.8" filter="url(#shadow)"/>
    <circle cx="56" cy="32" r="14" fill="url(#g_pkg2_d2)"/>
    <text x="56" y="36" text-anchor="middle" fill="white" font-size="11" font-weight="700">5</text>
    <text x="90" y="28" font-size="11" font-weight="700" fill="#1E1B4B">이탈 판정</text>
    <text x="90" y="44" font-size="9" font-weight="500" fill="#475569">σ 임계·추세 검출</text>
  </g>
  <text x="300" y="473" text-anchor="middle" font-size="10" fill="#818CF8" opacity="0.6">▼</text>
  <g class="card" transform="translate(0, 475)">
    <rect x="48" y="0" width="472" height="65" rx="8" fill="url(#g_pkg2_d2_card)" stroke="#818CF8" stroke-width="0.8" filter="url(#shadow)"/>
    <circle cx="56" cy="32" r="14" fill="url(#g_pkg2_d2)"/>
    <text x="56" y="36" text-anchor="middle" fill="white" font-size="11" font-weight="700">6</text>
    <text x="90" y="28" font-size="11" font-weight="700" fill="#1E1B4B">HMI 경보 + 조작변수</text>
    <text x="90" y="44" font-size="9" font-weight="500" fill="#475569">텐션·속도·온도 제안</text>
  </g>
  <text x="300" y="546" text-anchor="middle" font-size="10" fill="#818CF8" opacity="0.6">▼</text>
  <g class="card" transform="translate(0, 548)">
    <rect x="48" y="0" width="472" height="65" rx="8" fill="url(#g_pkg2_d2_card)" stroke="#818CF8" stroke-width="0.8" filter="url(#shadow)"/>
    <circle cx="56" cy="32" r="14" fill="url(#g_pkg2_d2)"/>
    <text x="56" y="36" text-anchor="middle" fill="white" font-size="11" font-weight="700">7</text>
    <text x="90" y="28" font-size="11" font-weight="700" fill="#1E1B4B">드리프트 모니터링</text>
    <text x="90" y="44" font-size="9" font-weight="500" fill="#475569">PSI/KS 분포 측정</text>
  </g>
  <text x="300" y="619" text-anchor="middle" font-size="10" fill="#818CF8" opacity="0.6">▼</text>
  <g class="card" transform="translate(0, 621)">
    <rect x="48" y="0" width="472" height="65" rx="8" fill="url(#g_pkg2_d2_card)" stroke="#818CF8" stroke-width="0.8" filter="url(#shadow)"/>
    <circle cx="56" cy="32" r="14" fill="url(#g_pkg2_d2)"/>
    <text x="56" y="36" text-anchor="middle" fill="white" font-size="11" font-weight="700">8</text>
    <text x="90" y="28" font-size="11" font-weight="700" fill="#1E1B4B">재학습 트리거</text>
    <text x="90" y="44" font-size="9" font-weight="500" fill="#475569">Track 2 SCN-MLO-01</text>
  </g>
  <!-- 하단 cross-reference 120px -->
  <rect x="40" y="690" width="520" height="80" rx="8" fill="#EEF2FF" stroke="#C7D2FE" stroke-width="1"/>
  <text x="60" y="715" font-size="11" font-weight="700" fill="#4338CA">📌 사업계획서 §SCN-STL-05 두께 조기경보 paste 가능</text>
  <text x="60" y="735" font-size="10" font-weight="500" fill="#475569">결합 5.2 카드: 5.2-b (시계열 예측)</text>
  <text x="60" y="752" font-size="10" font-weight="500" fill="#475569">Track 2 SCN-MLO-01 드리프트 모니터링·재학습 결합</text>
</svg>
